<?xml version="1.0" encoding="utf-8" ?>
<svg baseProfile="full" height="200mm" version="1.1" viewBox="0,0,200,200" width="200mm" xmlns="http://www.w3.org/2000/svg" xmlns:ev="http://www.w3.org/2001/xml-events" xmlns:xlink="http://www.w3.org/1999/xlink"><defs /><rect fill="#1a1a1a" height="200" width="200" x="0" y="0" /><text alignment-baseline="middle" fill="#e1ed5e" style="dominant-baseline: central; font-size:9.0px; font-family:Arial;" text-anchor="middle" x="100.0" y="100.0">2019</text><line stroke="#e1ed5e" stroke-width="0.3" x1="100.0" x2="100.0" y1="15.0" y2="10.0" /><path d="M 100.0 14.0 a86.0,86.0 0 0,1 42.46469731375804,11.215312516191453" fill="none" id="id25" stroke="none" /><text fill="#e1ed5e" style="font-size:6.75px; font-family:Arial;" text-anchor="middle"><textPath startOffset="22.20632615414155" xlink:href="#id25">January</textPath></text><line stroke="#e1ed5e" stroke-width="0.3" x1="143.23703022742887" x2="145.7803849466894" y1="26.81831364943548" y2="22.513508569990506" /><path d="M 143.74570117128098 25.957352633546492 a86.0,86.0 0 0,1 28.547481713284135,27.462654790039103" fill="none" id="id26" stroke="none" /><text fill="#e1ed5e" style="font-size:6.75px; font-family:Arial;" text-anchor="middle"><textPath startOffset="19.985693538727396" xlink:href="#id26">February</textPath></text><line stroke="#e1ed5e" stroke-width="0.3" x1="172.23445277983987" x2="176.4835382374775" y1="55.19839476539836" y2="52.563006222186495" /><path d="M 173.08426987136738 54.67131705675599 a86.0,86.0 0 0,1 12.851231095245387,41.99856678651699" fill="none" id="id27" stroke="none" /><text fill="#e1ed5e" style="font-size:6.75px; font-family:Arial;" text-anchor="middle"><textPath startOffset="22.20632615414155" xlink:href="#id27">March</textPath></text><line stroke="#e1ed5e" stroke-width="0.3" x1="184.98032266829074" x2="189.97916517819016" y1="98.17113171792111" y2="98.06355123074" /><path d="M 185.9800911702706 98.14961562048488 a86.0,86.0 0 0,1 -9.607161424134198,41.387399972396054" fill="none" id="id28" stroke="none" /><text fill="#e1ed5e" style="font-size:6.75px; font-family:Arial;" text-anchor="middle"><textPath startOffset="21.466115282336823" xlink:href="#id28">April</textPath></text><line stroke="#e1ed5e" stroke-width="0.3" x1="174.80103733775053" x2="179.2010983576182" y1="140.37084112569926" y2="142.7455964860345" /><path d="M 175.68104954172406 140.8457921977663 a86.0,86.0 0 0,1 -30.038265399797805,32.042727171017184" fill="none" id="id29" stroke="none" /><text fill="#e1ed5e" style="font-size:6.75px; font-family:Arial;" text-anchor="middle"><textPath startOffset="22.206326154141568" xlink:href="#id29">May</textPath></text><line stroke="#e1ed5e" stroke-width="0.3" x1="143.8653032363475" x2="146.44561519142675" y1="172.8068346515853" y2="177.08958963109032" /><path d="M 144.38136562736335 173.6633856474863 a86.0,86.0 0 0,1 -40.68145358897372,12.25698825130547" fill="none" id="id30" stroke="none" /><text fill="#e1ed5e" style="font-size:6.75px; font-family:Arial;" text-anchor="middle"><textPath startOffset="21.466115282336833" xlink:href="#id30">June</textPath></text><path d="M 106.2309692047433 120.05430185196036 l 0.5727685869289703 1.8434490295426789 a22.93038031970243,22.93038031970243 0 0,0 -0.3779418321072327,0.11387077370978582 l -0.5409517803814916 -1.8530351723581902" fill="#ff0000" stroke="none" /><line stroke="#e1ed5e" stroke-width="0.3" x1="102.19456741930631" x2="102.32365962044197" y1="184.97166512339345" y2="189.96999836594603" /><path d="M 102.22038585953345 185.97133177190398 a86.0,86.0 0 0,1 -42.740103519485714,-10.115201625700543" fill="none" id="id31" stroke="none" /><text fill="#e1ed5e" style="font-size:6.75px; font-family:Arial;" text-anchor="middle"><textPath startOffset="22.20632615414155" xlink:href="#id31">July</textPath></text><path d="M 90.10565033884886 118.52300852407294 l -3.0741746587086958 5.755099158394334 a27.524700464787475,27.524700464787475 0 0,0 -0.4159862875081971,-0.22682889156875194 l 3.1727837580855347 -5.701329615065816" fill="#ff4306" stroke="none" /><line stroke="#e1ed5e" stroke-width="0.3" x1="58.666819895761336" x2="56.23545636021788" y1="174.27360380694188" y2="178.64263932499728" /><path d="M 58.180547188652646 175.14741091055294 a86.0,86.0 0 0,1 -31.652253787137756,-30.449443065178592" fill="none" id="id32" stroke="none" /><text fill="#e1ed5e" style="font-size:6.75px; font-family:Arial;" text-anchor="middle"><textPath startOffset="22.20632615414155" xlink:href="#id32">August</textPath></text><path d="M 89.1626897886671 117.98757091392108 l -12.107941775280839 20.096542136141803 a44.4621665637109,44.4621665637109 0 0,0 -0.6521558151284373,-0.4006073668405601 l 12.452076790341584 -19.885146302472865" fill="#deff1b" stroke="none" /><path d="M 87.07902340077011 116.55440617244103 l -17.79745771569359 22.802173009120423 a49.925569917976745,49.925569917976745 0 0,0 -0.6729075470047133,-0.5345984523104105 l 18.18732275541566 -22.49244064280488" fill="#9eff22" stroke="none" /><path d="M 83.72743513129215 113.27417163493433 l -9.890518241098457 8.068085009957922 a33.763868802420724,33.763868802420724 0 0,0 -0.36349552171224275,-0.4535165533275383 l 10.02793167486556 -7.896640623052126" fill="#ff990e" stroke="none" /><path d="M 83.50135304334701 112.99209946851258 l -19.480000243206607 15.339809468699126 a45.79476081778812,45.79476081778812 0 0,0 -0.4823566142868497,-0.6235109462917048 l 19.741163674711526 -15.002220528294169" fill="#ceff1d" stroke="none" /><line stroke="#e1ed5e" stroke-width="0.3" x1="26.63291911575756" x2="22.317208475507996" y1="142.92168965132927" y2="145.44649492493687" /><path d="M 25.769776987707644 143.4266507060508 a86.0,86.0 0 0,1 -11.730757126820373,-40.83630448921669" fill="none" id="id33" stroke="none" /><text fill="#e1ed5e" style="font-size:6.75px; font-family:Arial;" text-anchor="middle"><textPath startOffset="21.46611528233685" xlink:href="#id33">September</textPath></text><path d="M 79.86692584326677 105.97154293290107 l -11.641453869032839 3.45289750780895 a33.14273236896263,33.14273236896263 0 0,0 -0.1575185106731298,-0.5483426001403772 l 11.699165016592072 -3.2519974321639773" fill="#ff910d" stroke="none" /><path d="M 79.58551787078972 104.9243191809786 l -7.149758993381418 1.7246430807130328 a28.35482477148775,28.35482477148775 0 0,0 -0.11036701571236592,-0.47545821511570896 l 7.17838657502434 -1.6013162082487498" fill="#ff4f07" stroke="none" /><path d="M 79.50377843672027 104.57218783832718 l -14.347917063114997 3.200656847837279 a35.70057578150033,35.70057578150033 0 0,0 -0.12863420879038917,-0.6009361989355398 l 14.400885310629826 -2.953206829485575" fill="#ffb310" stroke="none" /><path d="M 79.4281124754447 104.21870165774334 l -46.23715527950715 9.481908910602495 a68.19937631929281,68.19937631929281 0 0,0 -0.22593500864528318,-1.152037741514093 l 46.3935202211281 -8.684607442020448" fill="#39ff8a" stroke="none" /><path d="M 79.29508885075956 103.50808413554451 l -62.11473344772131 10.524252406633527 a84.0,84.0 0 0,0 -0.22927298255483697,-1.4276830812271428 l 62.286688184637434 -9.453490095713171" fill="#4dd2ff" stroke="none" /><path d="M 79.07016306316243 101.71520430193888 l -15.952263885390076 1.307291199852965 a37.00574063735676,37.00574063735676 0 0,0 -0.04656281032447704,-0.6353125525524089 l 15.97240325437889 -1.0325055108037953" fill="#ffc412" stroke="none" /><line stroke="#e1ed5e" stroke-width="0.3" x1="15.007084014347285" x2="10.007500721073583" y1="101.09737516637583" y2="101.16192664675087" /><path d="M 14.007167355692545 101.11028546245083 a86.0,86.0 0 0,1 10.666146001902534,-42.60595125391555" fill="none" id="id34" stroke="none" /><text fill="#e1ed5e" style="font-size:6.75px; font-family:Arial;" text-anchor="middle"><textPath startOffset="22.20632615414155" xlink:href="#id34">October</textPath></text><path d="M 79.00175016825051 100.2711162175752 l -12.851828706084028 0.16593474292555516 a33.852899884050885,33.852899884050885 0 0,0 -0.0025078594337048137,-0.5827382115906805 l 12.852780862807236 0.05531294686880075" fill="#ff9a0e" stroke="none" /><line stroke="#e1ed5e" stroke-width="0.3" x1="26.266209847984243" x2="21.928928074336255" y1="57.71137044288968" y2="55.22380399835378" /><path d="M 25.398753493254645 57.2138571539825 a86.0,86.0 0 0,1 29.58750427330803,-30.4925239686951" fill="none" id="id35" stroke="none" /><text fill="#e1ed5e" style="font-size:6.75px; font-family:Arial;" text-anchor="middle"><textPath startOffset="21.46611528233685" xlink:href="#id35">November</textPath></text><path d="M 83.6137871275137 86.86637796730984 l -5.137737771024905 -4.117919528618864 a27.584345878521006,27.584345878521006 0 0,0 0.3001459346823046,-0.36794342626570414 l 5.066093344266208 4.20574712449265" fill="#ff4406" stroke="none" /><line stroke="#e1ed5e" stroke-width="0.3" x1="56.76296977257108" x2="54.21961505331056" y1="26.818313649435495" y2="22.513508569990535" /><path d="M 56.25429882871898 25.957352633546506 a86.0,86.0 0 0,1 42.26535254187918,-11.944610805530505" fill="none" id="id36" stroke="none" /><text fill="#e1ed5e" style="font-size:6.75px; font-family:Arial;" text-anchor="middle"><textPath startOffset="22.20632615414155" xlink:href="#id36">December</textPath></text></svg>