<?xml version="1.0" encoding="utf-8" ?>
<svg baseProfile="full" height="200mm" version="1.1" viewBox="0,0,200,200" width="200mm" xmlns="http://www.w3.org/2000/svg" xmlns:ev="http://www.w3.org/2001/xml-events" xmlns:xlink="http://www.w3.org/1999/xlink"><defs /><rect fill="#1a1a1a" height="200" width="200" x="0" y="0" /><text alignment-baseline="middle" fill="#e1ed5e" style="dominant-baseline: central; font-size:9.0px; font-family:Arial;" text-anchor="middle" x="100.0" y="100.0">2023</text><line stroke="#e1ed5e" stroke-width="0.3" x1="100.0" x2="100.0" y1="15.0" y2="10.0" /><path d="M 100.0 14.0 a86.0,86.0 0 0,1 42.46469731375804,11.215312516191453" fill="none" id="id73" stroke="none" /><text fill="#e1ed5e" style="font-size:6.75px; font-family:Arial;" text-anchor="middle"><textPath startOffset="22.20632615414155" xlink:href="#id73">January</textPath></text><line stroke="#e1ed5e" stroke-width="0.3" x1="143.23703022742887" x2="145.7803849466894" y1="26.81831364943548" y2="22.513508569990506" /><path d="M 143.74570117128098 25.957352633546492 a86.0,86.0 0 0,1 28.547481713284135,27.462654790039103" fill="none" id="id74" stroke="none" /><text fill="#e1ed5e" style="font-size:6.75px; font-family:Arial;" text-anchor="middle"><textPath startOffset="19.985693538727396" xlink:href="#id74">February</textPath></text><line stroke="#e1ed5e" stroke-width="0.3" x1="172.23445277983987" x2="176.4835382374775" y1="55.19839476539836" y2="52.563006222186495" /><path d="M 173.08426987136738 54.67131705675599 a86.0,86.0 0 0,1 12.851231095245387,41.99856678651699" fill="none" id="id75" stroke="none" /><text fill="#e1ed5e" style="font-size:6.75px; font-family:Arial;" text-anchor="middle"><textPath startOffset="22.20632615414155" xlink:href="#id75">March</textPath></text><line stroke="#e1ed5e" stroke-width="0.3" x1="184.98032266829074" x2="189.97916517819016" y1="98.17113171792111" y2="98.06355123074" /><path d="M 185.9800911702706 98.14961562048488 a86.0,86.0 0 0,1 -9.607161424134198,41.387399972396054" fill="none" id="id76" stroke="none" /><text fill="#e1ed5e" style="font-size:6.75px; font-family:Arial;" text-anchor="middle"><textPath startOffset="21.466115282336823" xlink:href="#id76">April</textPath></text><path d="M 120.41448212921028 104.9243191809786 l 14.573514704034507 3.5153788147613896 a35.99150489577291,35.99150489577291 0 0,0 -0.15045937673060888,0.6010104183399937 l -14.510844013008837 -3.76571707249878" fill="#ffaa0f" stroke="none" /><path d="M 119.41010516605496 108.01547362559984 l 12.0974837746179 4.995699987300994 a34.08839684759988,34.08839684759988 0 0,0 -0.22863415470055015,0.5404236042746309 l -12.009698638725038 -5.203198117241788" fill="#ff900d" stroke="none" /><line stroke="#e1ed5e" stroke-width="0.3" x1="174.80103733775053" x2="179.2010983576182" y1="140.37084112569926" y2="142.7455964860345" /><path d="M 175.68104954172406 140.8457921977663 a86.0,86.0 0 0,1 -30.038265399797805,32.042727171017184" fill="none" id="id77" stroke="none" /><text fill="#e1ed5e" style="font-size:6.75px; font-family:Arial;" text-anchor="middle"><textPath startOffset="22.206326154141568" xlink:href="#id77">May</textPath></text><path d="M 114.0293411484842 115.62618273729858 l 38.25890706471597 42.61359580575662 a78.26833782538979,78.26833782538979 0 0,0 -1.0102491187077371,0.8914273876086599 l -37.519715593101644 -43.26584633513757" fill="#46fff4" stroke="none" /><path d="M 112.04921762599082 117.19931262002967 l 36.14765287797247 51.597937860089026 a84.0,84.0 0 0,0 -1.1913724615084669,0.8194368425396235 l -35.25412353184112 -52.21251549199374" fill="#4dd2ff" stroke="none" /><line stroke="#e1ed5e" stroke-width="0.3" x1="143.8653032363475" x2="146.44561519142675" y1="172.8068346515853" y2="177.08958963109032" /><path d="M 144.38136562736335 173.6633856474863 a86.0,86.0 0 0,1 -40.68145358897372,12.25698825130547" fill="none" id="id78" stroke="none" /><text fill="#e1ed5e" style="font-size:6.75px; font-family:Arial;" text-anchor="middle"><textPath startOffset="21.466115282336833" xlink:href="#id78">June</textPath></text><path d="M 109.89434966115114 118.52300852407294 l 4.523193964197561 8.467778401225315 a30.60013305584934,30.60013305584934 0 0,0 -0.46673814293753574,0.2441753369779835 l -4.37676491873353 -8.544383157148015" fill="#ff5f08" stroke="none" /><line stroke="#e1ed5e" stroke-width="0.3" x1="102.19456741930631" x2="102.32365962044197" y1="184.97166512339345" y2="189.96999836594603" /><path d="M 102.22038585953345 185.97133177190398 a86.0,86.0 0 0,1 -42.740103519485714,-10.115201625700543" fill="none" id="id79" stroke="none" /><text fill="#e1ed5e" style="font-size:6.75px; font-family:Arial;" text-anchor="middle"><textPath startOffset="22.20632615414155" xlink:href="#id79">July</textPath></text><path d="M 98.73552117531835 120.96189622390904 l -0.8449477295229391 14.007119989017292 a35.03258162464604,35.03258162464604 0 0,0 -0.601621596185673,-0.041491347660634066 l 1.0859320864875421 -13.990500296840374" fill="#ff9d0e" stroke="none" /><path d="M 97.65516085044442 120.86867818915974 l -1.4148267802697494 12.591722880629316 a33.67095970795947,33.67095970795947 0 0,0 -0.5754087656537268,-0.06967398816283189 l 1.6313629689748652 -12.565503363741136" fill="#ff8a0c" stroke="none" /><path d="M 97.2962882734958 120.8252237178851 l -0.8127264390648535 6.2599905711284505 a27.312527719968614,27.312527719968614 0 0,0 -0.465706441854186,-0.06454266931422455 l 0.9203614721058699 -6.245073336321621" fill="#ff3004" stroke="none" /><path d="M 96.93821686468263 120.77559828337769 l -1.0349785627962924 7.022802694461437 a28.098657500597046,28.098657500597046 0 0,0 -0.47789679714099,-0.07463765126939265 l 1.1557112235458002 -7.003946735844939" fill="#ff3b05" stroke="none" /><path d="M 94.81253420990036 120.34920634021253 l -1.638709968394646 6.428273193100958 a27.633857596124322,27.633857596124322 0 0,0 -0.45991892056341865,-0.12146876705881939 l 1.7491193317695533 -6.399113076738558" fill="#ff3505" stroke="none" /><path d="M 94.46302465271185 120.25689768951611 l -1.8975374301248655 6.942097295573592 a28.19676060182184,28.19676060182184 0 0,0 -0.4670844844661702,-0.1320027408909498 l 2.016753082695651 -6.90840576134412" fill="#ff3d05" stroke="none" /><path d="M 91.7346041902142 119.30500536409082 l -2.104467897479321 4.915283548949376 a26.3468493057214,26.3468493057214 0 0,0 -0.41537605204915784,-0.1820886544414108 l 2.1887646241862235 -4.878330341213513" fill="#ff2203" stroke="none" /><path d="M 91.40352486487194 119.15986991738527 l -2.602673482683668 5.800852626429933 a27.357971410050833,27.357971410050833 0 0,0 -0.42799853233722085,-0.19647313419363813 l 2.7021400107883085 -5.755192421902221" fill="#ff3104" stroke="none" /><line stroke="#e1ed5e" stroke-width="0.3" x1="58.666819895761336" x2="56.23545636021788" y1="174.27360380694188" y2="178.64263932499728" /><path d="M 58.180547188652646 175.14741091055294 a86.0,86.0 0 0,1 -31.652253787137756,-30.449443065178592" fill="none" id="id80" stroke="none" /><text fill="#e1ed5e" style="font-size:6.75px; font-family:Arial;" text-anchor="middle"><textPath startOffset="22.20632615414155" xlink:href="#id80">August</textPath></text><path d="M 88.8546689885994 117.79835938074946 l -1.6468094747809268 2.629846240887092 a24.1029135819317,24.1029135819317 0 0,0 -0.3497426853383314,-0.2232223292853559 l 1.6918339621661818 -2.6011094827779324" fill="#ff0000" stroke="none" /><path d="M 88.24862548938628 117.40417183066458 l -7.3654068089833915 10.908409530350266 a34.16216608099349,34.16216608099349 0 0,0 -0.48452218921872986,-0.33325877985383634 l 7.552085882825011 -10.780009961131327" fill="#ff910d" stroke="none" /><path d="M 87.95078237400918 117.19931262002967 l -13.201846851731176 18.84460038923129 a44.00886186073488,44.00886186073488 0 0,0 -0.6166954941946505,-0.4399958608269753 l 13.524269673774713 -18.614560266560094" fill="#ecff1a" stroke="none" /><path d="M 86.79598089348748 116.32954008644616 l -8.239343446029062 10.189676946284372 a34.10405649756064,34.10405649756064 0 0,0 -0.4533076622032749,-0.37304134496476954 l 8.413521236777026 -10.046340482462421" fill="#ff900d" stroke="none" /><line stroke="#e1ed5e" stroke-width="0.3" x1="26.63291911575756" x2="22.317208475507996" y1="142.92168965132927" y2="145.44649492493687" /><path d="M 25.769776987707644 143.4266507060508 a86.0,86.0 0 0,1 -11.730757126820373,-40.83630448921669" fill="none" id="id81" stroke="none" /><text fill="#e1ed5e" style="font-size:6.75px; font-family:Arial;" text-anchor="middle"><textPath startOffset="21.46611528233685" xlink:href="#id81">September</textPath></text><line stroke="#e1ed5e" stroke-width="0.3" x1="15.007084014347285" x2="10.007500721073583" y1="101.09737516637583" y2="101.16192664675087" /><path d="M 14.007167355692545 101.11028546245083 a86.0,86.0 0 0,1 10.666146001902534,-42.60595125391555" fill="none" id="id82" stroke="none" /><text fill="#e1ed5e" style="font-size:6.75px; font-family:Arial;" text-anchor="middle"><textPath startOffset="22.20632615414155" xlink:href="#id82">October</textPath></text><line stroke="#e1ed5e" stroke-width="0.3" x1="26.266209847984243" x2="21.928928074336255" y1="57.71137044288968" y2="55.22380399835378" /><path d="M 25.398753493254645 57.2138571539825 a86.0,86.0 0 0,1 29.58750427330803,-30.4925239686951" fill="none" id="id83" stroke="none" /><text fill="#e1ed5e" style="font-size:6.75px; font-family:Arial;" text-anchor="middle"><textPath startOffset="21.46611528233685" xlink:href="#id83">November</textPath></text><line stroke="#e1ed5e" stroke-width="0.3" x1="56.76296977257108" x2="54.21961505331056" y1="26.818313649435495" y2="22.513508569990535" /><path d="M 56.25429882871898 25.957352633546506 a86.0,86.0 0 0,1 42.26535254187918,-11.944610805530505" fill="none" id="id84" stroke="none" /><text fill="#e1ed5e" style="font-size:6.75px; font-family:Arial;" text-anchor="middle"><textPath startOffset="22.20632615414155" xlink:href="#id84">December</textPath></text></svg>