<?xml version="1.0" encoding="utf-8" ?>
<svg baseProfile="full" height="200mm" version="1.1" viewBox="0,0,200,200" width="200mm" xmlns="http://www.w3.org/2000/svg" xmlns:ev="http://www.w3.org/2001/xml-events" xmlns:xlink="http://www.w3.org/1999/xlink"><defs /><rect fill="#1a1a1a" height="200" width="200" x="0" y="0" /><text alignment-baseline="middle" fill="#e1ed5e" style="dominant-baseline: central; font-size:9.0px; font-family:Arial;" text-anchor="middle" x="100.0" y="100.0">2020</text><line stroke="#e1ed5e" stroke-width="0.3" x1="100.0" x2="100.0" y1="15.0" y2="10.0" /><path d="M 100.0 14.0 a86.0,86.0 0 0,1 42.35913384403234,11.155469271406648" fill="none" id="id37" stroke="none" /><text fill="#e1ed5e" style="font-size:6.75px; font-family:Arial;" text-anchor="middle"><textPath startOffset="22.145653131862478" xlink:href="#id37">January</textPath></text><line stroke="#e1ed5e" stroke-width="0.3" x1="143.13028292997686" x2="145.6673583964461" y1="26.7553504044142" y2="22.446841604673864" /><path d="M 143.63769802327073 25.89364864446614 a86.0,86.0 0 0,1 29.32050498858742,28.57503671076992" fill="none" id="id38" stroke="none" /><text fill="#e1ed5e" style="font-size:6.75px; font-family:Arial;" text-anchor="middle"><textPath startOffset="20.669276256404974" xlink:href="#id38">February</textPath></text><line stroke="#e1ed5e" stroke-width="0.3" x1="172.87174338648825" x2="177.1583165268699" y1="56.24261187166439" y2="53.66864786411523" /><path d="M 173.72905801456457 55.72781907015455 a86.0,86.0 0 0,1 12.242430191666344,42.057860355516425" fill="none" id="id39" stroke="none" /><text fill="#e1ed5e" style="font-size:6.75px; font-family:Arial;" text-anchor="middle"><textPath startOffset="22.145653131862474" xlink:href="#id39">March</textPath></text><line stroke="#e1ed5e" stroke-width="0.3" x1="184.99686870605535" x2="189.99668451229388" y1="99.2704041080226" y2="99.22748670261217" /><path d="M 185.99683186730306 99.26182062694052 a86.0,86.0 0 0,1 -10.086455211305974,41.156179273409016" fill="none" id="id40" stroke="none" /><text fill="#e1ed5e" style="font-size:6.75px; font-family:Arial;" text-anchor="middle"><textPath startOffset="21.40746469413373" xlink:href="#id40">April</textPath></text><path d="M 118.5362547648365 109.86951160357373 l 8.371193571227343 4.4571890673255306 a30.48385028292013,30.48385028292013 0 0,0 -0.2499017422778317,0.4597910587713696 l -8.293446479334174 -4.600234959571505" fill="#ff760a" stroke="none" /><line stroke="#e1ed5e" stroke-width="0.3" x1="174.33088141563837" x2="178.70328620479359" y1="141.23008692659167" y2="143.65538615756765" /><path d="M 175.20536237346943 141.71514677278685 a86.0,86.0 0 0,1 -30.301960400862466,31.63118572779886" fill="none" id="id41" stroke="none" /><text fill="#e1ed5e" style="font-size:6.75px; font-family:Arial;" text-anchor="middle"><textPath startOffset="22.145653131862474" xlink:href="#id41">May</textPath></text><path d="M 118.18653347947321 110.5 l 54.55960043841964 31.499999999999986 a84.0,84.0 0 0,0 -0.7317051594809478,1.242595326825802 l -54.010821568808936 -32.43194649511934" fill="#4dd2ff" stroke="none" /><path d="M 115.16444852881244 114.52719865689866 l 8.971654977433108 8.594642521334803 a33.4241085436194,33.4241085436194 0 0,0 -0.4004736604448874,0.41092125542035224 l -8.82279451583741 -8.747386468822892" fill="#ff9d0e" stroke="none" /><path d="M 113.31354834802062 116.24036423190432 l 24.773605863702606 30.21977102174924 a60.07641370567462,60.07641370567462 0 0,0 -0.8031622317946332,0.6469706410624604 l -24.25119286155272 -30.6405899566051" fill="#30ff2f" stroke="none" /><line stroke="#e1ed5e" stroke-width="0.3" x1="143.1302829299769" x2="145.6673583964461" y1="173.24464959558577" y2="177.55315839532614" /><path d="M 143.63769802327073 174.10635135553383 a86.0,86.0 0 0,1 -40.685524379131806,11.842963189579606" fill="none" id="id42" stroke="none" /><text fill="#e1ed5e" style="font-size:6.75px; font-family:Arial;" text-anchor="middle"><textPath startOffset="21.407464694133747" xlink:href="#id42">June</textPath></text><path d="M 106.38641147887787 120.00534299687104 l 2.8372365516657236 8.8876030877524 a30.329490870113652,30.329490870113652 0 0,0 -0.4973449657789612,0.15407874171956912 l -2.684250953015138 -8.934998417278614" fill="#ff740a" stroke="none" /><path d="M 104.29559338865022 120.5559693870025 l 2.419543051717234 11.578389386911319 a32.828494805935954,32.828494805935954 0 0,0 -0.5526184899346204,0.11053917497037379 l -2.220428076251655 -11.618217958544555" fill="#ff950d" stroke="none" /><path d="M 103.94208987418118 120.62667999033965 l 0.23546994914628905 1.23207827406292 a22.254377523064257,22.254377523064257 0 0,0 -0.375850225422522,0.06849243130173618 l -0.21428499017271047 -1.2359388792960198" fill="#ff0200" stroke="none" /><path d="M 103.58742460773223 120.69131181640829 l 0.19455626632867584 1.122148842867971 a22.138889883315187,22.138889883315187 0 0,0 -0.3750143423298068,0.0617084673206739 l -0.17526442094579617 -1.1253233086843153" fill="#ff0000" stroke="none" /><path d="M 103.2317021107853 120.74984581791261 l 0.21267743875500728 1.3655417213075336 a22.3820043001333,22.3820043001333 0 0,0 -0.38014757238278035,0.055868602039656476 l -0.18920476076454204 -1.3689913966460725" fill="#ff0400" stroke="none" /><path d="M 102.875027216393 120.80226474461374 l 0.26573488071091805 1.922725221141439 a22.94100162360567,22.94100162360567 0 0,0 -0.39056746992755925,0.050566778415279054 l -0.23268958889258284 -1.9270035957571126" fill="#ff0c01" stroke="none" /><path d="M 102.51750503828377 120.84855314841334 l 3.676624330289352 30.447723675279153 a51.66890026512575,51.66890026512575 0 0,0 -0.8814815223220714,0.09877184317069738 l -3.1534069063664814 -30.50635127895682" fill="#86ff25" stroke="none" /><path d="M 102.15924093988457 120.88869738790638 l 0.1397800777329987 1.3522454538022677 a22.359450711669954,22.359450711669954 0 0,0 -0.3821341248995037,0.03618849893133489 l -0.11654638944847971 -1.3544457082387864" fill="#ff0300" stroke="none" /><path d="M 101.80034050326958 120.92268563240118 l 3.5194348165687326 40.90116738309529 a62.05230705731475,62.05230705731475 0 0,0 -1.0620725286726833,0.08221113073538514 l -2.816793293120813 -40.95555628082573" fill="#32ff46" stroke="none" /><path d="M 101.08105385017728 120.97215588758144 l 0.5993786581094487 11.627785842027524 a32.64322371011795,32.64322371011795 0 0,0 -0.5598689653013669,0.02404318233793062 l -0.39968393220725246 -11.636361592791285" fill="#ff930d" stroke="none" /><line stroke="#e1ed5e" stroke-width="0.3" x1="101.45913802915013" x2="101.54496967792366" y1="184.9874750549273" y2="189.98673829345242" /><path d="M 101.47630435890484 185.9873277026323 a86.0,86.0 0 0,1 -42.54439059252881,-10.42667462771756" fill="none" id="id43" stroke="none" /><text fill="#e1ed5e" style="font-size:6.75px; font-family:Arial;" text-anchor="middle"><textPath startOffset="22.145653131862474" xlink:href="#id43">July</textPath></text><path d="M 100.0 121.0 l 5.405756625464149e-16 4.414135266778835 a25.414135266778835,25.414135266778835 0 0,0 -0.4362674264202604,-0.0037448311563164295 l 0.07577450157140761 -4.413484833816954" fill="#ff2f04" stroke="none" /><path d="M 98.91894614982273 120.97215588758144 l -0.07345226257340338 1.4249542709943472 a22.426846140725125,22.426846140725125 0 0,0 -0.3843060594093612,-0.023118898217935425 l 0.09790267411521093 -1.42348339495172" fill="#ff0400" stroke="none" /><path d="M 98.55909050195518 120.95050786540614 l -0.11637264396921038 1.6920327030276898 a22.696029852443516,22.696029852443516 0 0,0 -0.3884598487845249,-0.030069249087709603 l 0.14540148752897136 -1.6897856869449266" fill="#ff0801" stroke="none" /><path d="M 98.19965949673042 120.92268563240118 l -0.17305097252450727 2.0111146141166363 a23.018546167469346,23.018546167469346 0 0,0 -0.39339839379747293,-0.0372552369073888 l 0.20754892970699548 -2.0078476217040637" fill="#ff0d01" stroke="none" /><path d="M 96.76829788921471 120.74984581791261 l -0.33415490449296253 2.145514193399291 a23.171379896350363,23.171379896350363 0 0,0 -0.39250386259218145,-0.06458636122430533 l 0.37093627013820696 -2.1394618336793174" fill="#ff0f01" stroke="none" /><line stroke="#e1ed5e" stroke-width="0.3" x1="58.13341422392154" x2="55.670673884152215" y1="173.97424548756322" y2="178.32567169271397" /><path d="M 57.64086615596767 174.84453072859336 a86.0,86.0 0 0,1 -31.369924170532244,-30.572349798747886" fill="none" id="id44" stroke="none" /><text fill="#e1ed5e" style="font-size:6.75px; font-family:Arial;" text-anchor="middle"><textPath startOffset="22.145653131862474" xlink:href="#id44">August</textPath></text><line stroke="#e1ed5e" stroke-width="0.3" x1="26.387840678322732" x2="22.057713659400548" y1="142.50000000000003" y2="145.00000000000006" /><path d="M 25.521815274538298 143.00000000000003 a86.0,86.0 0 0,1 -11.493303480769221,-40.785679425670985" fill="none" id="id45" stroke="none" /><text fill="#e1ed5e" style="font-size:6.75px; font-family:Arial;" text-anchor="middle"><textPath startOffset="21.40746469413373" xlink:href="#id45">September</textPath></text><line stroke="#e1ed5e" stroke-width="0.3" x1="15.003131293944662" x2="10.003315487706104" y1="100.72959589197737" y2="100.7725132973878" /><path d="M 14.003168132696942 100.73817937305945 a86.0,86.0 0 0,1 10.791469493833604,-42.453326145846276" fill="none" id="id46" stroke="none" /><text fill="#e1ed5e" style="font-size:6.75px; font-family:Arial;" text-anchor="middle"><textPath startOffset="22.145653131862435" xlink:href="#id46">October</textPath></text><path d="M 79.56144815229197 95.17655741523228 l -5.668291597656627 -1.3377013830891336 a26.82399988207274,26.82399988207274 0 0,0 0.10961113231462796,-0.44725082473430117 l 5.644492938825701 1.4348080324315517" fill="#ff4306" stroke="none" /><path d="M 79.64726062577567 94.8264132398404 l -5.996092427224502 -1.5241832474634225 a27.186780985914012,27.186780985914012 0 0,0 0.11885868940785616,-0.45132580357318636 l 5.9690442570119195 1.6268895554093934" fill="#ff4806" stroke="none" /><path d="M 79.94057633289273 93.78553927170692 l -5.462272784641603 -1.6922260714320145 a26.718396020797314,26.718396020797314 0 0,0 0.13948947341504356,-0.43694878874469034 l 5.432418595449302 1.7857438938680965" fill="#ff4206" stroke="none" /><path d="M 80.05021161711548 93.44210830539832 l -5.6544264685876895 -1.8587222914053596 a26.952090997727794,26.952090997727794 0 0,0 0.14825521092122476,-0.43829018786400303 l 5.621685836094097 1.955514153743524" fill="#ff4506" stroke="none" /><path d="M 80.16572619554312 93.10060997987247 l -10.835508274702736 -3.769152245780461 a32.47234711046625,32.47234711046625 0 0,0 0.18765897731429693,-0.524915558488966 l 10.769209127344496 3.9546027606503484" fill="#ff900d" stroke="none" /><path d="M 80.28708602549916 92.7611449362534 l -10.778424862425837 -3.9579869062234487 a32.48216455485618,32.48216455485618 0 0,0 0.196701650222287,-0.5217744967764963 l 10.708892528389114 4.14242968319409" fill="#ff910d" stroke="none" /><line stroke="#e1ed5e" stroke-width="0.3" x1="26.387840678322718" x2="22.05771365940052" y1="57.5" y2="55.0" /><path d="M 25.521815274538284 57.0 a86.0,86.0 0 0,1 29.574782752854787,-30.346332500585742" fill="none" id="id47" stroke="none" /><text fill="#e1ed5e" style="font-size:6.75px; font-family:Arial;" text-anchor="middle"><textPath startOffset="21.40746469413373" xlink:href="#id47">November</textPath></text><line stroke="#e1ed5e" stroke-width="0.3" x1="56.869717070023135" x2="54.33264160355391" y1="26.7553504044142" y2="22.446841604673864" /><path d="M 56.362301976729285 25.89364864446614 a86.0,86.0 0 0,1 42.16139366436587,-11.88097634709845" fill="none" id="id48" stroke="none" /><text fill="#e1ed5e" style="font-size:6.75px; font-family:Arial;" text-anchor="middle"><textPath startOffset="22.145653131862474" xlink:href="#id48">December</textPath></text></svg>