<?xml version="1.0" encoding="utf-8" ?>
<svg baseProfile="full" height="200mm" version="1.1" viewBox="0,0,200,200" width="200mm" xmlns="http://www.w3.org/2000/svg" xmlns:ev="http://www.w3.org/2001/xml-events" xmlns:xlink="http://www.w3.org/1999/xlink"><defs /><rect fill="#1a1a1a" height="200" width="200" x="0" y="0" /><text alignment-baseline="middle" fill="#e1ed5e" style="dominant-baseline: central; font-size:9.0px; font-family:Arial;" text-anchor="middle" x="100.0" y="100.0">2024</text><line stroke="#e1ed5e" stroke-width="0.3" x1="100.0" x2="100.0" y1="15.0" y2="10.0" /><path d="M 100.0 14.0 a86.0,86.0 0 0,1 42.35913384403234,11.155469271406648" fill="none" id="id85" stroke="none" /><text fill="#e1ed5e" style="font-size:6.75px; font-family:Arial;" text-anchor="middle"><textPath startOffset="22.145653131862478" xlink:href="#id85">January</textPath></text><line stroke="#e1ed5e" stroke-width="0.3" x1="143.13028292997686" x2="145.6673583964461" y1="26.7553504044142" y2="22.446841604673864" /><path d="M 143.63769802327073 25.89364864446614 a86.0,86.0 0 0,1 29.32050498858742,28.57503671076992" fill="none" id="id86" stroke="none" /><text fill="#e1ed5e" style="font-size:6.75px; font-family:Arial;" text-anchor="middle"><textPath startOffset="20.669276256404974" xlink:href="#id86">February</textPath></text><line stroke="#e1ed5e" stroke-width="0.3" x1="172.87174338648825" x2="177.1583165268699" y1="56.24261187166439" y2="53.66864786411523" /><path d="M 173.72905801456457 55.72781907015455 a86.0,86.0 0 0,1 12.242430191666344,42.057860355516425" fill="none" id="id87" stroke="none" /><text fill="#e1ed5e" style="font-size:6.75px; font-family:Arial;" text-anchor="middle"><textPath startOffset="22.145653131862474" xlink:href="#id87">March</textPath></text><path d="M 118.18653347947321 89.5 l 21.351245066404076 -12.327147086622066 a45.654294173244125,45.654294173244125 0 0,0 0.3860323518412883,0.6820821767980273 l -21.55971078326674 11.958808139724919" fill="#f4ff19" stroke="none" /><line stroke="#e1ed5e" stroke-width="0.3" x1="184.99686870605535" x2="189.99668451229388" y1="99.2704041080226" y2="99.22748670261217" /><path d="M 185.99683186730306 99.26182062694052 a86.0,86.0 0 0,1 -10.086455211305974,41.156179273409016" fill="none" id="id88" stroke="none" /><text fill="#e1ed5e" style="font-size:6.75px; font-family:Arial;" text-anchor="middle"><textPath startOffset="21.40746469413373" xlink:href="#id88">April</textPath></text><path d="M 119.94978838288452 106.5578916946017 l 12.996463668698249 4.2721957504706936 a34.68063318790959,34.68063318790959 0 0,0 -0.19076755820499164,0.5639703886593782 l -12.921210688920892 -4.4946678136042335" fill="#ff700a" stroke="none" /><path d="M 119.83427380445688 106.89939002012753 l 10.882947090205464 3.78565392834636 a32.52257406283057,32.52257406283057 0 0,0 -0.18794924085706574,0.5257274772782615 l -10.816357679304456 -3.971916362005543" fill="#ff5007" stroke="none" /><line stroke="#e1ed5e" stroke-width="0.3" x1="174.33088141563837" x2="178.70328620479359" y1="141.23008692659167" y2="143.65538615756765" /><path d="M 175.20536237346943 141.71514677278685 a86.0,86.0 0 0,1 -30.301960400862466,31.63118572779886" fill="none" id="id89" stroke="none" /><text fill="#e1ed5e" style="font-size:6.75px; font-family:Arial;" text-anchor="middle"><textPath startOffset="22.145653131862474" xlink:href="#id89">May</textPath></text><path d="M 116.1254893667686 113.45245675266167 l 4.93399823150813 4.116116808452128 a27.425477112973596,27.425477112973596 0 0,0 -0.3046910908984736,0.35892533894355433 l -4.862612577102542 -4.200208929845237" fill="#ff0000" stroke="none" /><path d="M 115.89218393027572 113.72728997021213 l 19.106172543328853 16.503456785667225 a46.24697833666118,46.24697833666118 0 0,0 -0.524108055689159,0.5963387581854739 l -18.82005342368111 -16.82900782166399" fill="#ecff1a" stroke="none" /><path d="M 115.6541949942343 113.99807769240083 l 17.62577717894845 15.761078639351274 a44.64486458066011,44.64486458066011 0 0,0 -0.5157593710890984,0.566909896570388 l -17.352620107017472 -16.061326111479335" fill="#fffd17" stroke="none" /><path d="M 115.41159269507618 114.26474011684316 l 10.461425353800783 9.682939127465984 a35.25484937063025,35.25484937063025 0 0,0 -0.4149062073551501,0.4406160140805886 l -10.293663312709372 -9.861096601491067" fill="#ff790b" stroke="none" /><path d="M 115.16444852881244 114.52719865689866 l 8.002000893655001 7.665735843538144 a32.08131419665379,32.08131419665379 0 0,0 -0.3843848613479052,0.3944127302010075 l -7.869229231156287 -7.8019712658068885" fill="#ff4906" stroke="none" /><path d="M 114.91283532996326 114.78537596483092 l 16.13390814011901 15.996012317953584 a43.719493875302796,43.719493875302796 0 0,0 -0.5329782704717206,0.5284229280113066 l -15.856937949517329 -16.270615256193555" fill="#fff016" stroke="none" /><path d="M 114.65682725009322 115.03919595460226 l 7.798265472854627 8.00170736484077 a32.1731940436772,32.1731940436772 0 0,0 -0.3988365536744492,0.38207639637227875 l -7.6597564333148656 -8.134395891518631" fill="#ff4a06" stroke="none" /><path d="M 114.13192950727249 115.5334660781643 l 7.96732715719093 8.757488216041109 a32.83942151812372,32.83942151812372 0 0,0 -0.4202429076575602,0.3757837993737534 l -7.815819222709991 -8.89296754529825" fill="#ff5407" stroke="none" /><path d="M 113.86319453409587 115.77377054828091 l 15.676240023948965 17.836683499563637 a44.74640561331473,44.74640561331473 0 0,0 -0.5813208408650858,0.5021310968519671 l -15.367739703321023 -18.103158728880324" fill="#fffe18" stroke="none" /><path d="M 113.59037401385872 116.0094264158162 l 17.141745292049432 20.192932851728784 a47.48761916088206,47.48761916088206 0 0,0 -0.625990085394168,0.522223193344711 l -16.792580872493367 -20.484218228985366" fill="#dcff1b" stroke="none" /><path d="M 113.03279911837588 116.46651593811092 l 16.99346875274294 21.470692636264822 a48.38190319410627,48.38190319410627 0 0,0 -0.6556670718411245,0.5098506808304908 l -16.622391736266586 -21.759244368716107" fill="#d1ff1d" stroke="none" /><path d="M 112.7482090630111 116.68781488649013 l 6.955487274901077 9.10495611698659 a32.45770610216383,32.45770610216383 0 0,0 -0.44567059720817725,0.3344395247221395 l -6.798163688782133 -9.223014668972745" fill="#ff4f07" stroke="none" /><path d="M 112.16784306229584 117.11559508785304 l 13.457300990390575 18.92937914695868 a44.2254245350926,44.2254245350926 0 0,0 -0.6225358374998988,0.43457836314455756 l -13.130370061716917 -19.15760232590836" fill="#fff717" stroke="none" /><path d="M 111.27062007382361 117.71928675628689 l 6.289446630707175 9.888054752790085 a32.7188210036116,32.7188210036116 0 0,0 -0.4765042441244252,0.29737389043516005 l -6.118778257793035 -9.994564440066794" fill="#ff5307" stroke="none" /><path d="M 110.96478420261333 117.91015095944535 l 12.169096532723284 19.877304643094675 a44.306525916513834,44.306525916513834 0 0,0 -0.652080753882549,0.3915557569046301 l -11.8260830222833 -20.083274400535227" fill="#fff817" stroke="none" /><line stroke="#e1ed5e" stroke-width="0.3" x1="143.1302829299769" x2="145.6673583964461" y1="173.24464959558577" y2="177.55315839532614" /><path d="M 143.63769802327073 174.10635135553383 a86.0,86.0 0 0,1 -40.685524379131806,11.842963189579606" fill="none" id="id90" stroke="none" /><text fill="#e1ed5e" style="font-size:6.75px; font-family:Arial;" text-anchor="middle"><textPath startOffset="21.407464694133747" xlink:href="#id90">June</textPath></text><path d="M 110.65571695917076 118.09573695890943 l 5.8285530535010865 9.898157328252829 a32.48675538140871,32.48675538140871 0 0,0 -0.48298141546916457,0.2788494502347118 l -5.657779170171521 -9.996753675763712" fill="#ff4f07" stroke="none" /><path d="M 110.02825361518725 118.45085714620011 l 5.604443158213163 10.311544169523756 a32.73617170433705,32.73617170433705 0 0,0 -0.49604837926913364,0.2641178219247388 l -5.426605963157476 -10.406232459171063" fill="#ff5307" stroke="none" /><path d="M 109.71004243097381 118.62028667847754 l 10.608702867898373 20.343586559100526 a43.94354137065529,43.94354137065529 0 0,0 -0.6718607102676394,0.3430568658597471 l -10.257914935917151 -20.522701376633112" fill="#fff316" stroke="none" /><path d="M 109.3889696526874 118.78422872680471 l 4.446277711253687 8.89553386586751 a30.94484329913685,30.94484329913685 0 0,0 -0.477198587648419,0.23342174194501578 l -4.292918874343199 -8.970549357909748" fill="#ff3705" stroke="none" /><path d="M 109.06512990194946 118.94263497670748 l 4.9914019342068565 10.430110311092077 a32.56292758648748,32.56292758648748 0 0,0 -0.5062934936368113,0.2369709192791832 l -4.811619726698539 -10.514257461941796" fill="#ff5007" stroke="none" /><path d="M 108.73861861582097 119.09545874513695 l 4.605137091327871 10.06305563947419 a32.06672383468012,32.06672383468012 0 0,0 -0.5025109061106305,0.22476673662260074 l -4.431712782361613 -10.140626127006641" fill="#ff4906" stroke="none" /><path d="M 108.4095320186766 119.2426549942271 l 10.285665697786778 23.535616009178867 a46.685017807627545,46.685017807627545 0 0,0 -0.7371006866691957,0.3146244524229317 l -9.880129935947151 -23.7087151112612" fill="#e6ff1a" stroke="none" /><path d="M 107.407793817531 119.65005319985036 l 5.835869641689109 15.48033756760305 a37.54382741936493,37.54382741936493 0 0,0 -0.6050113565303947,0.22216855039845465 l -5.569269133504585 -15.578236967010227" fill="#ff9a0e" stroke="none" /><path d="M 106.72888874123015 119.89276391827305 l 3.6142037656908697 10.684751231341973 a32.279467085620574,32.279467085620574 0 0,0 -0.5264277865558764,0.17304726962538153 l -3.430253241487259 -10.745219422369374" fill="#ff4c07" stroke="none" /><path d="M 106.38641147887787 120.00534299687104 l 3.485297830074198 10.917645812126027 a32.46046644091561,32.46046644091561 0 0,0 -0.5322888419183608,0.16490444387165656 l -3.297368355284213 -10.97586684380433" fill="#ff4f07" stroke="none" /><path d="M 106.0420521117495 120.11202640906438 l 3.262877568769716 10.861058233017934 a32.34058887226705,32.34058887226705 0 0,0 -0.5330652872294315,0.15516753613574832 l -3.0759522691586776 -10.9154694634562" fill="#ff4d07" stroke="none" /><path d="M 105.3480935250658 120.30758222061773 l 16.044280575197412 60.92274666185318 a84.0,84.0 0 0,0 -1.3975788270984106,0.35525907265892 l -14.996096454873605 -61.189190966347375" fill="#4dd2ff" stroke="none" /><path d="M 104.9986988182912 120.39639698878246 l 2.6296178851378866 10.729738330666187 a32.047270018715224,32.047270018715224 0 0,0 -0.5354455528563415,0.12636369253144433 l -2.4450401785416664 -10.773298166843857" fill="#ff4806" stroke="none" /><line stroke="#e1ed5e" stroke-width="0.3" x1="101.45913802915013" x2="101.54496967792366" y1="184.9874750549273" y2="189.98673829345242" /><path d="M 101.47630435890484 185.9873277026323 a86.0,86.0 0 0,1 -42.54439059252881,-10.42667462771756" fill="none" id="id91" stroke="none" /><text fill="#e1ed5e" style="font-size:6.75px; font-family:Arial;" text-anchor="middle"><textPath startOffset="22.145653131862474" xlink:href="#id91">July</textPath></text><line stroke="#e1ed5e" stroke-width="0.3" x1="58.13341422392154" x2="55.670673884152215" y1="173.97424548756322" y2="178.32567169271397" /><path d="M 57.64086615596767 174.84453072859336 a86.0,86.0 0 0,1 -31.369924170532244,-30.572349798747886" fill="none" id="id92" stroke="none" /><text fill="#e1ed5e" style="font-size:6.75px; font-family:Arial;" text-anchor="middle"><textPath startOffset="22.145653131862474" xlink:href="#id92">August</textPath></text><line stroke="#e1ed5e" stroke-width="0.3" x1="26.387840678322732" x2="22.057713659400548" y1="142.50000000000003" y2="145.00000000000006" /><path d="M 25.521815274538298 143.00000000000003 a86.0,86.0 0 0,1 -11.493303480769221,-40.785679425670985" fill="none" id="id93" stroke="none" /><text fill="#e1ed5e" style="font-size:6.75px; font-family:Arial;" text-anchor="middle"><textPath startOffset="21.40746469413373" xlink:href="#id93">September</textPath></text><line stroke="#e1ed5e" stroke-width="0.3" x1="15.003131293944662" x2="10.003315487706104" y1="100.72959589197737" y2="100.7725132973878" /><path d="M 14.003168132696942 100.73817937305945 a86.0,86.0 0 0,1 10.791469493833604,-42.453326145846276" fill="none" id="id94" stroke="none" /><text fill="#e1ed5e" style="font-size:6.75px; font-family:Arial;" text-anchor="middle"><textPath startOffset="22.145653131862435" xlink:href="#id94">October</textPath></text><line stroke="#e1ed5e" stroke-width="0.3" x1="26.387840678322718" x2="22.05771365940052" y1="57.5" y2="55.0" /><path d="M 25.521815274538284 57.0 a86.0,86.0 0 0,1 29.574782752854787,-30.346332500585742" fill="none" id="id95" stroke="none" /><text fill="#e1ed5e" style="font-size:6.75px; font-family:Arial;" text-anchor="middle"><textPath startOffset="21.40746469413373" xlink:href="#id95">November</textPath></text><line stroke="#e1ed5e" stroke-width="0.3" x1="56.869717070023135" x2="54.33264160355391" y1="26.7553504044142" y2="22.446841604673864" /><path d="M 56.362301976729285 25.89364864446614 a86.0,86.0 0 0,1 42.16139366436587,-11.88097634709845" fill="none" id="id96" stroke="none" /><text fill="#e1ed5e" style="font-size:6.75px; font-family:Arial;" text-anchor="middle"><textPath startOffset="22.145653131862474" xlink:href="#id96">December</textPath></text></svg>